<?xml version="1.0" standalone="no"?><!DOCTYPE svg PUBLIC "-//W3C//DTD SVG 1.1//EN" "http://www.w3.org/Graphics/SVG/1.1/DTD/svg11.dtd"><svg t="1611920131742" class="icon" viewBox="0 0 1024 1024" version="1.1" xmlns="http://www.w3.org/2000/svg" p-id="5248" xmlns:xlink="http://www.w3.org/1999/xlink" width="64" height="64"><defs><style type="text/css"></style></defs><path d="M792.6 703.2H350.8c-14.2 0-26.4-9.9-29.3-23.7l-97.6-457.7H128c-16.6 0-30-13.4-30-30s13.4-30 30-30h120.1c14.2 0 26.4 9.9 29.3 23.7L375 643.2h417.5c16.6 0 30 13.4 30 30s-13.4 30-29.9 30z" fill="#d81e06" p-id="5249"></path><path d="M814.6 555.6h-495c-16.6 0-30-13.4-30-30s13.4-30 30-30h475.5L860 350H285.4c-16.6 0-30-13.4-30-30s13.4-30 30-30h620.7c10.2 0 19.6 5.1 25.2 13.7s6.4 19.3 2.2 28.5L842 537.8c-4.8 10.8-15.6 17.8-27.4 17.8z" fill="#d81e06" p-id="5250"></path><path d="M387.5 812.9m-63.9 0a63.9 63.9 0 1 0 127.8 0 63.9 63.9 0 1 0-127.8 0Z" fill="#d81e06" p-id="5251"></path><path d="M707 812.9m-63.9 0a63.9 63.9 0 1 0 127.8 0 63.9 63.9 0 1 0-127.8 0Z" fill="#d81e06" p-id="5252"></path></svg>